<svg id="Layer_1" data-name="Layer 1" xmlns="http://www.w3.org/2000/svg" viewBox="0 0 432.89 703.65"><defs><style>.cls-1{fill:#1e1e1c;}</style></defs><title>Rambergs_R_BLACK</title><path class="cls-1" d="M2.62,559.53V0h227C358.82,0,410.83,71.37,411.62,165.14c.78,70.14-34.68,125.72-104,145.42l125.3,249H312.32L205.14,332.62H111.37V559.53ZM111.37,244.36h80.38c85.11,0,111.11-25.62,111.11-79.22s-32.31-76.87-92.19-76.87h-99.3Z"/><path class="cls-1" d="M32.15,624.83a11,11,0,0,0,2.58-7.33,10.24,10.24,0,0,0-3.29-8c-2.18-1.93-5.22-2.91-9-2.91H0v39.11H5.16V628.72H19.88l9.63,16.93h5.82l-9.72-17.1A11.12,11.12,0,0,0,32.15,624.83Zm-27-13.52H22.31c4.69,0,7,2.07,7,6.32s-2.36,6.23-7.21,6.23H5.16Z"/><path class="cls-1" d="M82,606.54H77.88L58.73,645.65h5.64l5.09-10.41H90.58c.1.21,5.26,10.41,5.26,10.41h5.65L82.12,606.54Zm6.27,23.84H71.85c.26-.54,7.84-15.82,8.17-16.47C80.35,614.56,88,629.84,88.27,630.38Z"/><path class="cls-1" d="M164.06,606.54l-15.65,23.54L133,606.54h-4.87v39.11h5.16V615.88c.67,1,15.12,22.6,15.12,22.6l15.13-22.59v29.76h5.16V606.54h-4.64Z"/><path class="cls-1" d="M232.72,623.45a8.2,8.2,0,0,0,3.38-7.07c0-6.53-4-9.84-11.76-9.84H201.27v39.11h24.29c4.05,0,7.3-1.07,9.67-3.19a11,11,0,0,0,3.59-8.65C238.82,629.36,236.75,625.88,232.72,623.45ZM231.53,639a6.69,6.69,0,0,1-5,1.89H206.42v-14.2h20.07a6.66,6.66,0,0,1,5,1.91,8.27,8.27,0,0,1,0,10.4Zm-6.7-17.08H206.42v-10.6h18.41c4.11,0,6.11,1.75,6.11,5.35S228.94,621.91,224.83,621.91Z"/><path class="cls-1" d="M274.82,627.26h15.56v-4.77H274.82V611.31h25.65v-4.77H269.66v39.11h32.39v-4.77H274.82Z"/><path class="cls-1" d="M362.24,624.83a11,11,0,0,0,2.58-7.33,10.22,10.22,0,0,0-3.3-8c-2.17-1.93-5.22-2.91-9-2.91H330.08v39.11h5.16V628.72H350l9.64,16.93h5.82s-9.5-16.71-9.73-17.1A11.12,11.12,0,0,0,362.24,624.83Zm-27-13.52H352.4c4.69,0,7,2.07,7,6.32s-2.36,6.23-7.22,6.23H335.24Z"/><path class="cls-1" d="M413.94,624.73v4.77h10.61v5.41A14.45,14.45,0,0,1,412,641.76a14.21,14.21,0,0,1-10.66-4.4,16.86,16.86,0,0,1,0-22.33,14.18,14.18,0,0,1,10.65-4.4c5.92,0,10.21,2.45,12.75,7.3l.1.2,4.36-3.11-.09-.15c-3.86-6-9.62-9.11-17.13-9.11a19.63,19.63,0,0,0-14.48,5.78,21.62,21.62,0,0,0,0,29.31A19.62,19.62,0,0,0,412,646.62c7.87,0,13.83-3.37,17.71-10l0-11.86Z"/><path class="cls-1" d="M13.59,676.73h2.73l13,26.24H25.76l-3.55-7.06H7.7L4.24,703H.74Zm7.16,16.11L15,681.21,9.21,692.84Z"/><path class="cls-1" d="M77.67,689.92c0,7.55-5,13.05-13.77,13.05H52.65V676.73H63.9C72.42,676.73,77.67,682.33,77.67,689.92ZM55.92,679.75V700h8c6.76,0,10.42-4.19,10.42-10.08s-3.9-10.12-10.42-10.12Z"/><path class="cls-1" d="M114.26,703,101.6,676.73h3.55l10.13,21,10.12-21H129L116.3,703Z"/><path class="cls-1" d="M151.83,689.92c0-8,5.75-13.77,13.58-13.77S179,681.94,179,689.92s-5.79,13.73-13.63,13.73S151.83,697.9,151.83,689.92Zm23.81,0c0-6.23-4.34-10.71-10.23-10.71s-10.22,4.48-10.22,10.71,4.38,10.66,10.22,10.66S175.64,696.1,175.64,689.92Z"/><path class="cls-1" d="M203.48,676.68h3.26v13.1l15-13.1h4.28L215.45,686,227.67,703h-3.94l-10.61-14.7-6.38,5.35V703h-3.26Z"/><path class="cls-1" d="M264.28,676.73H267L280,703h-3.55l-3.56-7.06h-14.5L254.93,703h-3.5Zm7.15,16.11-5.79-11.63-5.74,11.63Z"/><path class="cls-1" d="M314.22,679.75H303.17v-3h25.36v3h-11V703h-3.26Z"/><path class="cls-1" d="M355.13,676.73h20.64v3H358.39v7.69h10.52v3H358.39V700h18.45v3H355.13Z"/><path class="cls-1" d="M404.32,676.73h15c5.16,0,8.23,2.73,8.23,7.3a7.3,7.3,0,0,1-6.23,7.4L427.93,703h-3.6l-6.58-11.49H407.58V703h-3.26Zm14.85,11.68c3.31,0,5-1.51,5-4.28s-1.7-4.38-4.87-4.38H407.58v8.66Z"/></svg>