<svg id="Layer_1" data-name="Layer 1" xmlns="http://www.w3.org/2000/svg" viewBox="0 0 458.64 104.48"><defs><style>.cls-1{fill:#13a9bf;}</style></defs><title>Rambergs_liggandes_BLUE_RGB</title><path class="cls-1" d="M34.32,20.36a11.82,11.82,0,0,0,2.75-7.83,10.92,10.92,0,0,0-3.51-8.59C31.23,1.87,28,.83,23.91.83H0V42.58H5.5V24.51H21.21c.12.2,10.29,18.07,10.29,18.07h6.21L27.33,24.32A11.86,11.86,0,0,0,34.32,20.36ZM5.5,5.92H23.81c5,0,7.44,2.21,7.44,6.75s-2.51,6.64-7.7,6.64H5.5Z"/><path class="cls-1" d="M87.53.83h-4.4L62.69,42.58h6l5.44-11.12H96.68c.11.23,5.62,11.12,5.62,11.12h6L87.65.83Zm6.69,25.44H76.69C77,25.7,85.06,9.39,85.4,8.69,85.76,9.39,93.93,25.7,94.22,26.27Z"/><path class="cls-1" d="M175.11.83,158.41,26,142,.83h-5.2V42.58h5.5V10.8L158.4,34.93l16.15-24.12V42.58h5.51V.83h-4.95Z"/><path class="cls-1" d="M248.39,18.88a8.74,8.74,0,0,0,3.6-7.55c0-7-4.22-10.5-12.54-10.5H214.82V42.58h25.93c4.32,0,7.79-1.15,10.32-3.41a11.79,11.79,0,0,0,3.83-9.23C254.9,25.18,252.69,21.48,248.39,18.88Zm-1.27,16.58a7.13,7.13,0,0,1-5.38,2H220.32V22.33h21.42a7.1,7.1,0,0,1,5.38,2,7.67,7.67,0,0,1,2,5.54A7.63,7.63,0,0,1,247.12,35.46ZM240,17.24H220.32V5.92H240c4.39,0,6.52,1.87,6.52,5.72S244.36,17.24,240,17.24Z"/><path class="cls-1" d="M293.32,23h16.62V17.86H293.32V5.92H320.7V.83H287.82V42.58h34.57V37.49H293.32Z"/><path class="cls-1" d="M386.63,20.36a11.77,11.77,0,0,0,2.75-7.83,10.92,10.92,0,0,0-3.51-8.59C383.54,1.87,380.3.83,376.22.83H352.31V42.58h5.51V24.51h15.71c.12.2,10.28,18.07,10.28,18.07H390s-10.14-17.84-10.37-18.26A11.84,11.84,0,0,0,386.63,20.36ZM357.82,5.92h18.31c5,0,7.44,2.21,7.44,6.75s-2.52,6.64-7.7,6.64H357.82Z"/><path class="cls-1" d="M441.81,20.25v5.09h11.33v5.77a15.42,15.42,0,0,1-13.39,7.31,15.19,15.19,0,0,1-11.39-4.69,16.56,16.56,0,0,1-4.51-11.9A16.65,16.65,0,0,1,428.36,9.9a15.12,15.12,0,0,1,11.36-4.71c6.32,0,10.89,2.62,13.61,7.8l.11.21,4.65-3.31-.1-.17C453.88,3.27,447.73,0,439.71,0a20.92,20.92,0,0,0-15.45,6.17,21.39,21.39,0,0,0-6.12,15.66,21.37,21.37,0,0,0,6.1,15.62,21,21,0,0,0,15.48,6.17c8.39,0,14.75-3.61,18.89-10.71l0-12.66Z"/><path class="cls-1" d="M14.51,75.75h2.91l13.87,28H27.5l-3.8-7.53H8.22l-3.69,7.53H.79ZM22.14,93,16,80.53,9.83,93Z"/><path class="cls-1" d="M82.91,89.83c0,8-5.36,13.92-14.71,13.92h-12v-28h12C77.29,75.75,82.91,81.72,82.91,89.83ZM59.68,79v21.56H68.2c7.22,0,11.12-4.47,11.12-10.75S75.16,79,68.2,79Z"/><path class="cls-1" d="M122,103.75l-13.51-28h3.79L123,98.19l10.81-22.44h3.84l-13.56,28Z"/><path class="cls-1" d="M162.06,89.83c0-8.52,6.13-14.7,14.49-14.7s14.55,6.18,14.55,14.7-6.18,14.65-14.55,14.65S162.06,98.35,162.06,89.83Zm25.4,0c0-6.65-4.62-11.43-10.91-11.43s-10.91,4.78-10.91,11.43,4.68,11.38,10.91,11.38S187.46,96.43,187.46,89.83Z"/><path class="cls-1" d="M217.18,75.7h3.48v14l16.06-14h4.57L230,85.67l13,18.08h-4.21L227.47,88.06l-6.81,5.72v10h-3.48Z"/><path class="cls-1" d="M282.07,75.75H285l13.87,28h-3.79l-3.79-7.53H275.79l-3.69,7.53h-3.74ZM289.71,93l-6.18-12.42L277.4,93Z"/><path class="cls-1" d="M335.38,79h-11.8V75.75h27.07V79H338.86v24.78h-3.48Z"/><path class="cls-1" d="M379.05,75.75h22V79H382.53v8.21h11.22V90.4H382.53v10.13h19.69v3.22H379.05Z"/><path class="cls-1" d="M431.54,75.75H447.6c5.51,0,8.78,2.91,8.78,7.79a7.8,7.8,0,0,1-6.65,7.9l7,12.31H452.9l-7-12.26H435v12.26h-3.49Zm15.85,12.47c3.53,0,5.35-1.61,5.35-4.57S450.92,79,447.55,79H435v9.25Z"/></svg>